<svg width="140" height="28" viewBox="0 0 140 28" fill="none" xmlns="http://www.w3.org/2000/svg">
<g clip-path="url(#clip0_10913_3)">
<path d="M10.6266 7.98062H13V4.16881C12.5905 4.11687 11.1823 4 9.54229 4C6.12032 4 3.77619 5.98482 3.77619 9.6328V12.9901H0V17.2514H3.77619V27.9736H8.40597V17.2524H12.0294L12.6046 12.9911H8.40488V10.0553C8.40597 8.82369 8.7656 7.98062 10.6266 7.98062Z" fill="#198C36"/>
</g>
<path d="M57 5.25392C55.8844 5.70514 54.6956 6.00423 53.4562 6.14945C54.7312 5.44754 55.7044 4.34456 56.1619 3.01509C54.9731 3.66859 53.6606 4.13018 52.2619 4.38778C51.1331 3.2796 49.5244 2.59326 47.7694 2.59326C44.3644 2.59326 41.6231 5.14154 41.6231 8.26552C41.6231 8.71502 41.6644 9.14722 41.7656 9.55868C36.6525 9.32875 32.1281 7.06918 29.0887 3.6271C28.5581 4.47595 28.2469 5.44754 28.2469 6.49348C28.2469 8.45742 29.3438 10.1983 30.9787 11.2062C29.9906 11.189 29.0213 10.9244 28.2 10.5078C28.2 10.5251 28.2 10.5476 28.2 10.57C28.2 13.3258 30.3319 15.6147 33.1275 16.142C32.6269 16.2682 32.0812 16.3287 31.515 16.3287C31.1212 16.3287 30.7238 16.308 30.3506 16.2319C31.1475 18.4777 33.4087 20.1287 36.0975 20.1823C34.005 21.6915 31.3481 22.6009 28.4719 22.6009C27.9675 22.6009 27.4837 22.5802 27 22.5231C29.7244 24.143 32.9531 25.0679 36.435 25.0679C47.7525 25.0679 53.94 16.4238 53.94 8.93112C53.94 8.68044 53.9306 8.43841 53.9175 8.1981C55.1381 7.39938 56.1637 6.40185 57 5.25392Z" fill="#198C36"/>
<g clip-path="url(#clip1_10913_3)">
<path d="M96.6055 0H75.3945C72.9716 0 71 1.81788 71 4.05192V23.6092C71 25.8433 72.9716 27.6611 75.3945 27.6611H96.6055C99.0284 27.6611 101 25.8433 101 23.6092V4.05192C101 1.81788 99.0284 0 96.6055 0ZM81.6055 21.9344H78.0898V10.589H81.6055V21.9344ZM81.6055 8.96826H78.0898V5.72672H81.6055V8.96826ZM93.9102 21.9344H90.3945V15.4513C90.3945 14.5578 89.6058 13.8306 88.6367 13.8306C87.6676 13.8306 86.8789 14.5578 86.8789 15.4513V21.9344H83.3633V10.589H86.8789V11.2C87.7999 10.936 88.3982 10.589 89.5156 10.589C91.8999 10.5913 93.9102 12.5635 93.9102 14.8942V21.9344Z" fill="#198C36"/>
</g>
<g clip-path="url(#clip2_10913_3)">
<path d="M136.338 3H118.662C116.643 3 115 4.64299 115 6.66211V24.3379C115 26.357 116.643 28 118.662 28H136.338C138.357 28 140 26.357 140 24.3379V6.66211C140 4.64299 138.357 3 136.338 3ZM127.549 22.043C123.914 22.043 120.957 19.086 120.957 15.4512C120.957 11.8163 123.914 8.85938 127.549 8.85938C131.184 8.85938 134.141 11.8163 134.141 15.4512C134.141 19.086 131.184 22.043 127.549 22.043ZM134.873 10.3242C133.661 10.3242 132.676 9.3385 132.676 8.12695C132.676 6.91541 133.661 5.92969 134.873 5.92969C136.085 5.92969 137.07 6.91541 137.07 8.12695C137.07 9.3385 136.085 10.3242 134.873 10.3242Z" fill="#198C36"/>
<path d="M134.873 7.39453C134.469 7.39453 134.141 7.72279 134.141 8.12695C134.141 8.53112 134.469 8.85938 134.873 8.85938C135.277 8.85938 135.606 8.53112 135.606 8.12695C135.606 7.72279 135.277 7.39453 134.873 7.39453Z" fill="#198C36"/>
<path d="M127.549 10.3242C124.722 10.3242 122.422 12.6245 122.422 15.4512C122.422 18.2779 124.722 20.5781 127.549 20.5781C130.375 20.5781 132.676 18.2779 132.676 15.4512C132.676 12.6245 130.375 10.3242 127.549 10.3242Z" fill="#198C36"/>
</g>
<defs>
<clipPath id="clip0_10913_3">
<rect width="13" height="24" fill="white" transform="translate(0 4)"/>
</clipPath>
<clipPath id="clip1_10913_3">
<rect width="30" height="28" fill="white" transform="translate(71)"/>
</clipPath>
<clipPath id="clip2_10913_3">
<rect width="25" height="25" fill="white" transform="translate(115 3)"/>
</clipPath>
</defs>
</svg>
