<svg width="492" height="511" viewBox="0 0 492 511" fill="none" xmlns="http://www.w3.org/2000/svg">
<path d="M316.835 480.681C170.066 519.604 88.9786 486.89 66.7831 465.682C-32.4521 370.836 5.57664 268.611 21.6746 241.09C42.9137 204.762 82.8383 150.19 106.315 112.496C167.641 7.34953 251.7 3.92437 286.091 15.3957C437.344 45.9147 484.152 174.534 488.644 235.025C509.729 396.973 382.858 466.271 316.835 480.681Z" fill="#F7BC28"/>
<path d="M190.596 208.572C167.045 210.136 143.398 209.444 119.979 206.505C108.023 205.001 93.1376 199.962 93.8891 190.148C94.5553 181.495 107.024 177.335 117.408 175.294C198.619 159.628 281.679 155.888 363.968 164.19C377.794 165.582 392.662 167.769 402.253 175.977C406.267 179.394 409.153 184.331 407.377 188.841C405.31 194.128 398.025 196.614 391.518 198.313C348.856 209.352 304.918 214.677 260.855 214.149L190.596 208.572Z" fill="#153A23"/>
<path d="M203.125 154.837C225.209 150.352 247.661 145.868 270.113 147.79C292.565 149.712 315.375 159.073 328.586 177.352C343.156 197.57 343.634 224.741 354.898 246.966C361.799 260.633 373.012 273.445 372.252 288.658C371.15 310.866 346.298 323.054 324.914 329.153C271.868 344.275 216.84 351.29 161.697 349.96C155.77 349.815 149.647 349.525 144.301 346.954C134.847 342.444 129.809 331.434 129.501 320.987C129.194 310.541 132.721 300.317 136.427 290.502C152.516 247.915 172.529 206.915 196.207 168.033" fill="#FAC7B7"/>
<path d="M213.125 172.227C203.377 200.488 199.438 230.427 201.545 260.248C202.561 274.615 205.174 289.392 212.86 301.043C217.616 308.216 224.258 313.938 232.056 317.579C239.853 321.219 248.503 322.638 257.055 321.679C273.708 319.621 288.952 308.363 298.167 292.911C311.634 270.327 312.224 241.423 310.413 214.457C308.791 190.481 303.428 163.011 284.076 152.001C268.857 143.348 250.488 148.234 233.997 153.325L213.125 172.227Z" fill="#B26D55"/>
<path d="M189.734 230.925C212.63 231.019 238.831 220.564 244.595 215.055C261.974 198.459 263.639 172.347 263.119 149.524L208.778 160.782L190.127 195.802C190.127 195.802 189.725 230.925 189.734 230.925Z" fill="#FAC7B7"/>
<path d="M255.347 159.902C255.347 159.902 274.067 207.282 322.813 216.755L315.127 188.328L298.449 159.902H255.347Z" fill="#FAC7B7"/>
<path d="M89.9949 500.335C80.6692 470.302 93.112 426.151 115.162 403.738C137.213 381.325 167.419 368.718 197.838 360.774C235.013 351.054 274.699 347.543 311.737 357.596C327.237 361.799 342.054 368.308 356.145 376.072C378.307 388.295 399.486 404.626 410.212 427.552C422.416 453.663 419.299 468.551 414.892 497.02" fill="#39B55D"/>
<path d="M279.046 212.706C278.419 212.607 277.777 212.713 277.215 213.009C276.654 213.304 276.202 213.773 275.929 214.346C275.792 214.636 275.655 214.918 275.544 215.2C275.177 216.165 275.211 217.489 276.134 217.968C276.518 218.133 276.937 218.206 277.355 218.181C281.674 218.284 285.969 218.857 290.165 219.889C292.306 220.404 294.418 221.031 296.493 221.768C297.014 221.956 298.927 223.033 299.414 222.853C300.268 222.529 299.849 220.957 299.491 220.41C298.941 219.697 298.241 219.114 297.441 218.702L297.227 218.565C292.97 215.963 288.244 214.222 283.316 213.44L279.046 212.706Z" fill="#FAC7B7"/>
<path d="M226.166 160.893C209.291 162.063 204.73 176.601 198.752 190.224C192.074 205.428 180.289 221.717 172.184 236.195C164.25 250.357 156.377 264.63 150.364 279.757C147.352 287.22 144.931 294.909 143.122 302.751C141.56 309.704 141.867 311.378 140.928 318.544C139.869 326.702 140.219 336.251 148.392 337.763C156.564 339.275 171.194 338.882 179.213 339.958C180.716 340.163 181.373 337.857 179.853 337.652C168.23 336.097 148.972 341.069 144.361 326.155C142.243 319.322 143.643 311.771 145.095 304.938C146.649 297.583 162.414 269.533 165.07 262.503C175.95 233.735 184.089 229.003 197.206 201.303C204.039 186.782 206.908 164.642 226.166 163.301C227.686 163.199 227.703 160.807 226.166 160.91V160.893Z" fill="white"/>
<path d="M213.971 334.406C206.549 333.723 194.2 331.724 187.309 328.888C181.271 326.411 174.627 322.909 171.185 317.092C165.309 307.184 166.275 291.604 174.174 283.003C175.207 281.875 175.575 279.125 174.533 280.261C167.701 287.701 164.088 295.867 165.301 305.638C166.155 312.207 165.848 318.63 169.375 322.004C173.704 326.155 182.518 329.623 188.069 331.75C194.781 334.312 203.791 335.235 210.93 335.901C212.468 336.038 220.324 334.551 218.787 334.406H213.971Z" fill="white"/>
<path d="M189.35 266.313C185.823 275.905 181.869 291.732 184.098 299.565C185.396 304.126 194.072 311.011 201.007 316.785C202.185 317.767 204.756 318.493 203.569 317.485C196.967 311.993 189.674 305.911 187.343 297.267C184.781 287.504 187.539 274.684 190.912 265.501C191.442 264.058 189.845 264.878 189.315 266.313H189.35Z" fill="white"/>
<path d="M196.361 220.923C204.901 219.659 213.006 216.532 220.897 213.056C228.181 209.844 239.873 204.412 245.663 198.843C251.453 193.274 252.785 183.776 255.347 176.276C258.165 168.179 257.704 163.703 257.764 155.136C257.764 153.598 256.056 149.438 256.056 150.985C256.056 175.046 250.855 188.858 239.078 199.629C233.51 204.754 226.507 207.974 219.667 210.989C211.981 214.406 204.064 217.387 195.703 218.617C194.183 218.839 194.849 221.179 196.335 220.923H196.361Z" fill="white"/>
<path d="M212.348 195.016C214.389 187.457 223.766 179.821 229.189 174.072C235.073 167.828 236.363 165.719 243.528 161.029C244.817 160.175 243.622 158.125 242.324 158.971C234.637 163.985 227.225 169.767 221.059 176.566C215.576 182.614 212.092 189.037 211.622 192.966C211.434 194.495 210.64 198.493 211.622 198.843L212.348 195.016Z" fill="white"/>
<path d="M231.956 187.645C239.471 178.113 247.986 166.291 246.696 158.604C246.448 157.109 244.604 156.451 244.39 157.972C242.725 169.93 234.877 181.888 227.609 191.113C226.67 192.309 228.642 191.907 229.59 190.703L231.956 187.645Z" fill="white"/>
<path d="M328.219 217.054C301.19 209.853 279.541 186.893 273.922 159.509L272.769 161.021C289.943 159.441 305.033 170.288 314.863 183.511C326.17 198.715 330.79 217.583 336.947 235.187C340.204 244.201 344.023 253.002 348.382 261.538C352.61 270.02 356.922 279.322 355.812 289.059C353.933 305.331 337.63 314.59 323.702 319.569C302.292 327.257 279.054 330.597 256.38 330.802C254.843 330.802 251.256 334.423 252.819 334.406C274.511 334.21 293.342 331.656 314.043 325.096C328.236 320.586 352.473 309.362 358.109 294.491C361.431 285.719 361.782 278.006 358.331 269.576C354.429 260.043 345.453 251.015 341.747 241.388C334.59 222.751 327.229 194.359 322.105 188.337C310.148 174.312 292.214 156.853 272.794 158.638C272.612 158.643 272.433 158.688 272.271 158.771C272.109 158.855 271.967 158.973 271.857 159.118C271.746 159.263 271.669 159.431 271.632 159.609C271.595 159.788 271.598 159.972 271.641 160.15C279.814 199.39 299.824 211.963 327.613 219.368C327.917 219.446 328.239 219.401 328.51 219.243C328.781 219.086 328.979 218.828 329.062 218.526C329.145 218.223 329.105 217.901 328.953 217.627C328.8 217.353 328.546 217.15 328.245 217.062L328.219 217.054Z" fill="white"/>
<path d="M252.358 323.012C269.25 324.438 296.467 322.849 312.608 316.887C325.674 312.053 328.595 304.878 334.342 291.826C337.571 284.498 339.791 285.198 334.189 268.764C333.693 267.312 331.2 266.808 331.994 268.132C339.68 280.996 329.697 298.489 319.722 306.723C308.475 316.008 293.982 320.125 279.644 321.184C270.548 321.719 261.425 321.536 252.358 320.637C250.829 320.509 250.838 322.901 252.358 323.029V323.012Z" fill="white"/>
<path d="M343.805 296.627C350.731 287.598 348.169 281.448 345.675 270.635C342.754 257.968 335.205 246.958 328.27 236.195C327.416 234.905 325.367 236.101 326.204 237.4C332.78 247.607 339.868 257.899 343.011 269.858C345.82 280.475 346.546 289.179 340.491 300.129C339.748 301.47 339.347 303.785 340.269 302.58L343.805 296.627Z" fill="white"/>
<path d="M295.485 304.101C306.143 301.017 315.699 287.53 320.004 277.477C325.29 265.151 319.15 257.874 316.186 245.07C315.836 243.575 313.539 244.216 313.88 245.711C316.69 257.771 317.476 270.882 312.719 282.576C308.791 292.236 300.302 298.728 290.831 303.434C289.837 304.122 288.919 304.913 288.09 305.792L295.485 304.101Z" fill="white"/>
<path d="M290.933 179.513C296.057 181.042 299.935 184.86 303.564 188.619C307.322 192.522 315.904 202.798 319.073 207.188C325.256 215.73 325.179 218.967 328.894 228.841C329.432 230.267 331.746 229.644 331.2 228.2C327.251 217.622 321.841 207.648 315.127 198.57C311.848 194.162 312.053 192.24 308.21 188.32C304.512 184.561 299.61 180.632 294.452 179.069C292.974 178.625 289.499 179.069 290.968 179.505L290.933 179.513Z" fill="white"/>
<path d="M205.815 229.499C195.567 231.164 191.912 231.045 182.543 235.785C175.822 239.202 168.76 244.13 167.667 251.587C166.266 261.179 175.891 269.174 185.404 271.028C194.918 272.881 204.764 270.789 214.44 271.574" fill="#B26D55"/>
<path d="M307.697 214.192C316.367 213.322 325.12 214.465 333.275 217.532C341.405 220.598 348.305 228.824 346.828 237.391C345.239 246.599 335.461 251.741 326.648 254.833C318.381 257.74 309.927 260.083 301.344 261.846" fill="#B26D55"/>
<path d="M234.655 317.878L241.683 354.547H263.195L270.984 307.065L234.655 317.878Z" fill="#B26D55"/>
<path d="M207.335 369.444C206.566 360.454 207.82 351.406 211.007 342.965C211.276 342.047 211.79 341.221 212.493 340.573C213.517 339.951 214.717 339.681 215.909 339.804C240.052 339.804 262.29 337.806 286.433 337.763C289.576 337.763 294.708 339.676 297.646 340.795C302.77 342.734 306.186 347.799 307.535 353.087C308.885 358.374 308.586 363.943 308.244 369.401" fill="#39B55D"/>
<path d="M213.612 285.83C213.467 285.965 213.276 286.039 213.078 286.039C212.88 286.039 212.69 285.965 212.544 285.83C210.093 283.678 207.25 282.004 204.705 279.954C201.972 277.741 199.495 274.906 198.88 271.412C197.727 264.921 204.363 260.53 209.752 264.698C211.222 265.929 212.505 267.368 213.561 268.969C213.582 269.008 213.616 269.038 213.657 269.054C213.699 269.07 213.744 269.07 213.786 269.056C213.828 269.042 213.863 269.013 213.886 268.976C213.909 268.938 213.918 268.893 213.911 268.85C213.83 267.929 213.934 267.001 214.217 266.121C214.501 265.241 214.957 264.426 215.559 263.725C217.6 261.282 221.913 259.206 225.192 259.813C229.812 260.667 229.701 265.988 228.437 269.49C226.9 273.71 222.562 277.425 219.376 280.398L213.612 285.83Z" fill="#F1673C"/>
<path d="M298.158 281.893C297.998 282.01 297.799 282.063 297.601 282.041C297.404 282.019 297.221 281.923 297.091 281.773C294.913 279.347 292.274 277.366 289.985 275.034C287.526 272.523 285.391 269.413 285.177 265.911C284.776 259.334 291.873 255.73 296.749 260.487C298.068 261.878 299.176 263.455 300.037 265.168C300.058 265.205 300.09 265.234 300.129 265.252C300.168 265.269 300.211 265.273 300.253 265.263C300.294 265.253 300.331 265.231 300.358 265.198C300.386 265.166 300.402 265.125 300.404 265.083C300.433 264.161 300.645 263.255 301.028 262.416C301.411 261.577 301.956 260.823 302.633 260.197C304.939 258.002 309.465 256.439 312.651 257.421C317.143 258.796 316.417 264.066 314.76 267.398C312.753 271.421 308.013 274.615 304.512 277.203L298.158 281.893Z" fill="#F1673C"/>
<path d="M268.029 294.406C272.089 292.709 275.759 290.198 278.811 287.028C281.863 283.858 284.233 280.095 285.775 275.973C285.891 275.746 285.954 275.496 285.961 275.241C285.967 274.986 285.917 274.733 285.812 274.5C285.708 274.268 285.554 274.061 285.359 273.896C285.165 273.731 284.936 273.612 284.69 273.546C284.444 273.481 284.186 273.472 283.935 273.519C283.685 273.567 283.448 273.67 283.243 273.82C283.037 273.971 282.868 274.166 282.748 274.391C282.627 274.616 282.559 274.864 282.547 275.119C281.194 278.695 279.136 281.962 276.495 284.727C273.855 287.491 270.685 289.697 267.175 291.211C266.752 291.337 266.394 291.621 266.176 292.005C265.957 292.389 265.896 292.842 266.005 293.27C266.13 293.693 266.415 294.051 266.799 294.27C267.182 294.488 267.635 294.549 268.063 294.44L268.029 294.406Z" fill="#010101"/>
<path d="M269.37 234.401C270.813 240.543 276.629 245.736 283.179 244.241C289.26 242.858 291.898 236.392 293.649 231.096L291.215 232.095L303.112 238.168C305.024 239.142 306.724 236.255 304.82 235.281L292.923 229.208C292.7 229.085 292.453 229.014 292.199 228.999C291.945 228.983 291.691 229.025 291.455 229.121C291.219 229.217 291.008 229.364 290.837 229.552C290.665 229.74 290.538 229.964 290.464 230.208C289.174 234.102 287.423 239.262 283.162 240.782C278.132 242.576 273.717 238.091 272.641 233.513C272.145 231.42 268.917 232.309 269.413 234.367L269.37 234.401Z" fill="#010101"/>
<path d="M288.764 238.331L289.183 238.647C289.405 238.817 289.234 238.689 289.114 238.587L289.396 238.809L290.421 239.663L292.787 241.619C294.273 242.858 295.75 244.122 297.313 245.258C297.699 245.472 298.153 245.529 298.579 245.416C299.006 245.303 299.372 245.029 299.602 244.651C299.817 244.266 299.874 243.813 299.763 243.387C299.652 242.96 299.38 242.593 299.004 242.362L298.577 242.055C298.355 241.884 298.534 242.012 298.654 242.106L298.363 241.884L297.338 241.03C296.544 240.381 295.759 239.723 294.973 239.065C293.487 237.835 292.018 236.571 290.447 235.435C290.062 235.22 289.609 235.162 289.182 235.274C288.755 235.385 288.388 235.657 288.158 236.033C287.944 236.419 287.887 236.873 288 237.3C288.113 237.726 288.387 238.093 288.764 238.322V238.331Z" fill="#010101"/>
<path d="M240.069 238.706C238.993 243.285 234.578 247.76 229.548 245.967C225.278 244.455 223.57 239.287 222.237 235.392C222.163 235.15 222.036 234.927 221.865 234.74C221.694 234.553 221.484 234.406 221.249 234.311C221.014 234.215 220.761 234.173 220.508 234.187C220.255 234.201 220.009 234.272 219.786 234.393L207.882 240.466C205.96 241.448 207.651 244.335 209.59 243.353L221.486 237.289L219.035 236.281C220.794 241.593 223.424 248.034 229.505 249.435C236.055 250.938 241.871 245.719 243.314 239.595C243.809 237.502 240.581 236.605 240.086 238.741L240.069 238.706Z" fill="#010101"/>
<path d="M222.212 240.645C220.649 241.781 219.18 243.046 217.694 244.284L215.328 246.24L214.304 247.094L214.047 247.291C213.945 247.368 214.398 247.026 214.09 247.291L213.663 247.607C213.287 247.837 213.015 248.204 212.904 248.631C212.793 249.058 212.85 249.511 213.065 249.896C213.296 250.272 213.663 250.544 214.089 250.655C214.516 250.767 214.969 250.709 215.354 250.494C216.917 249.358 218.394 248.094 219.872 246.864L222.246 244.899L223.271 244.045L223.518 243.848L223.937 243.541C224.24 243.279 224.441 242.92 224.506 242.525C224.571 242.13 224.495 241.725 224.292 241.38C224.088 241.035 223.771 240.773 223.393 240.638C223.016 240.504 222.604 240.507 222.229 240.645H222.212Z" fill="#010101"/>
<path d="M318.834 226.219C321.94 225.903 325.078 226.193 328.074 227.073C331.02 227.816 334.052 228.781 335.76 231.463C336.225 232.124 336.527 232.886 336.641 233.686C336.755 234.486 336.679 235.302 336.418 236.067C335.822 237.582 334.927 238.962 333.787 240.124C331.821 242.047 329.477 243.542 326.904 244.515C323.915 245.762 320.806 246.718 317.834 248.034C316.434 248.649 317.647 250.716 319.039 250.092C324.897 247.53 331.849 246.249 336.119 241.064C338.501 238.177 340.004 234.658 338.254 231.062C336.64 227.765 333.488 226.142 330.124 225.151C326.273 223.885 322.196 223.463 318.168 223.912C316.647 224.134 317.314 226.475 318.799 226.219H318.834Z" fill="#010101"/>
<path d="M320.96 239.971C321.893 239.741 322.794 239.397 323.642 238.946C324.803 238.405 325.898 237.731 326.904 236.938C327.392 236.611 327.806 236.185 328.119 235.687C328.432 235.19 328.638 234.633 328.723 234.051C328.8 232.471 327.365 231.549 326.084 231.028C324.21 230.384 322.249 230.029 320.268 229.977C319.953 229.979 319.651 230.106 319.429 230.33C319.206 230.554 319.081 230.857 319.081 231.173C319.092 231.481 319.218 231.773 319.435 231.992C319.652 232.21 319.944 232.339 320.251 232.351L321.268 232.437L321.848 232.497H322.07H322.352H322.523L322.865 232.548L323.428 232.65C323.832 232.726 324.231 232.823 324.624 232.941L325.136 233.112L325.333 233.189C325.085 233.095 325.392 233.189 325.427 233.189C325.461 233.189 325.726 233.342 325.862 233.419L326.067 233.556C326.349 233.718 325.965 233.445 326.067 233.556L326.281 233.761C326.443 233.906 326.135 233.513 326.229 233.693L326.289 233.786C326.443 234.017 326.204 233.513 326.289 233.786C326.375 234.06 326.289 233.522 326.289 233.786C326.285 233.835 326.285 233.883 326.289 233.932C326.289 233.932 326.375 233.616 326.289 233.752C326.255 233.825 326.232 233.903 326.221 233.983C326.178 234.179 326.366 233.718 326.221 233.889C326.221 233.889 326.178 233.966 326.161 234.009C326.144 234.051 326.05 234.179 325.99 234.273C325.93 234.367 326.187 234.043 326.033 234.214L325.93 234.333C325.862 234.419 325.785 234.495 325.717 234.572C325.649 234.649 325.316 234.922 325.119 235.102C325.059 235.145 324.957 235.247 325.187 235.051L325.008 235.179C324.906 235.256 324.803 235.332 324.692 235.401C324.581 235.469 324.214 235.717 323.975 235.862C323.505 236.144 323.027 236.4 322.54 236.639L321.754 237.007L321.626 237.058C321.985 236.947 321.695 237.058 321.626 237.058L321.285 237.186C320.944 237.324 320.593 237.432 320.234 237.511C320.081 237.55 319.938 237.62 319.812 237.715C319.686 237.811 319.58 237.93 319.501 238.067C319.422 238.204 319.37 238.355 319.349 238.511C319.329 238.668 319.339 238.827 319.38 238.98C319.466 239.285 319.668 239.545 319.942 239.704C320.216 239.864 320.541 239.91 320.849 239.834L320.96 239.971Z" fill="#010101"/>
<path d="M196.071 262.196C191.909 262.722 187.683 262.362 183.671 261.137C180.793 260.282 175.182 258.523 175.985 254.551C176.343 252.698 177.693 251.134 178.974 249.828C180.277 248.506 181.707 247.316 183.244 246.274C186.404 244.129 189.947 242.61 193.679 241.799C195.183 241.465 194.533 239.159 193.048 239.492C186.54 240.927 179.981 244.498 175.814 249.793C173.815 252.356 172.526 255.849 174.661 258.728C176.625 261.367 180.434 262.666 183.466 263.554C187.567 264.757 191.871 265.109 196.113 264.587C197.616 264.399 197.634 262.025 196.113 262.196H196.071Z" fill="#010101"/>
<path d="M191.109 246.872C189.497 247.049 187.926 247.497 186.463 248.196C185.058 248.827 183.808 249.757 182.799 250.921C182.293 251.532 181.977 252.279 181.889 253.068C181.801 253.857 181.945 254.654 182.304 255.363C182.642 256.023 183.11 256.608 183.679 257.083C184.249 257.559 184.908 257.915 185.618 258.13C187.471 258.711 189.444 258.42 191.322 258.13C191.63 258.048 191.893 257.847 192.053 257.572C192.213 257.296 192.257 256.969 192.176 256.661C192.088 256.357 191.887 256.098 191.613 255.939C191.34 255.78 191.015 255.733 190.708 255.807C189.162 256.037 187.454 256.302 185.968 255.696C186.104 255.747 185.72 255.567 185.677 255.542C185.53 255.456 185.387 255.362 185.25 255.26C185.327 255.311 185.302 255.26 185.191 255.2L185.003 255.021C185.003 255.021 184.695 254.688 184.772 254.782C184.673 254.645 184.582 254.502 184.499 254.355C184.457 254.283 184.42 254.209 184.388 254.133C184.388 254.226 184.388 254.209 184.388 254.073C184.332 253.92 184.289 253.763 184.26 253.603C184.26 253.816 184.26 253.364 184.26 253.321C184.26 253.278 184.26 253.159 184.26 253.278C184.26 253.193 184.26 253.116 184.311 253.031C184.35 252.91 184.405 252.796 184.473 252.689C184.641 252.413 184.852 252.165 185.097 251.954C185.646 251.455 186.251 251.019 186.899 250.656C188.214 249.905 189.665 249.423 191.169 249.238C191.483 249.23 191.782 249.101 192.005 248.878C192.227 248.656 192.356 248.357 192.364 248.042C192.362 247.726 192.235 247.423 192.012 247.199C191.788 246.975 191.485 246.849 191.169 246.847L191.109 246.872Z" fill="#010101"/>
<path d="M257.098 250.887C259.182 256.242 261.564 261.598 263.255 266.953C263.347 267.259 263.366 267.582 263.311 267.897C263.256 268.212 263.128 268.509 262.939 268.766C262.749 269.023 262.502 269.232 262.218 269.377C261.933 269.522 261.619 269.599 261.299 269.601L253.613 269.661C253.325 269.659 253.04 269.597 252.778 269.478C252.515 269.358 252.281 269.185 252.09 268.969C251.899 268.753 251.755 268.499 251.669 268.224C251.583 267.949 251.556 267.658 251.589 267.372L253.127 251.382C253.178 250.923 253.383 250.494 253.708 250.166C254.033 249.837 254.459 249.627 254.917 249.57C255.376 249.513 255.84 249.612 256.236 249.85C256.631 250.089 256.935 250.454 257.098 250.887Z" fill="#C05929"/>
<path d="M188.402 167.752L316.408 163.139L294.264 106.244H210.965L188.402 167.752Z" fill="#153A23"/>
<path d="M213.783 340.932C241.34 338.051 269.094 337.526 296.741 339.36C298.269 339.463 298.269 337.071 296.741 336.969C269.094 335.134 241.34 335.66 213.783 338.54C212.263 338.694 212.254 341.103 213.783 340.932Z" fill="#153A23"/>
<path d="M93.3084 496.508C87.9624 493.143 85.2381 486.036 87.45 480.057C89.6618 474.078 96.6476 470.26 102.984 471.43V469.132C93.3853 472.335 86.0836 461.078 86.1775 452.707C86.2287 447.795 87.9367 442.602 91.6773 439.254C95.4178 435.906 100.824 434.676 105.427 436.691C106.819 437.315 107.989 435.248 106.631 434.624C104.133 433.547 101.394 433.151 98.6933 433.478C95.9927 433.805 93.4272 434.843 91.2588 436.486C86.4252 440.057 84.0339 446.062 83.7863 451.938C83.3507 462.017 92.147 475.231 103.591 471.404C104.615 471.063 104.837 469.329 103.591 469.107C96.1693 467.731 88.2186 471.669 85.3576 478.784C82.4967 485.899 85.6138 494.552 92.0787 498.584C93.3853 499.438 94.5894 497.337 93.2828 496.525L93.3084 496.508Z" fill="#153A23"/>
<path d="M145.377 397.639C143.141 397.298 141.05 396.323 139.351 394.831C137.651 393.338 136.414 391.391 135.787 389.217C134.343 384.46 136.333 379.608 140.227 376.67C148.895 370.144 160.296 376.576 161.825 386.629L162.679 385.16C159.212 385.792 156.308 382.367 156.129 379.121C155.95 375.876 158.631 373.441 161.518 372.544C168.913 370.272 174.481 376.994 176.113 383.486C176.488 384.972 178.794 384.34 178.418 382.845C177.24 378.165 174.575 373.621 170.237 371.237C168.376 370.215 166.279 369.698 164.156 369.739C162.032 369.779 159.957 370.375 158.136 371.468C154.72 373.612 152.867 377.601 154.199 381.547C155.531 385.493 159.161 388.227 163.311 387.466C163.617 387.382 163.879 387.181 164.038 386.906C164.198 386.632 164.244 386.305 164.165 385.997C163.719 383.139 162.567 380.438 160.813 378.138C159.059 375.838 156.76 374.012 154.122 372.826C151.542 371.708 148.703 371.325 145.92 371.72C143.136 372.115 140.516 373.272 138.349 375.064C136.169 376.716 134.528 378.977 133.634 381.562C132.74 384.147 132.633 386.939 133.327 389.585C134.787 394.846 139.22 399.211 144.711 399.954C146.214 400.151 146.863 397.853 145.343 397.648L145.377 397.639Z" fill="#153A23"/>
<path d="M327.083 369.649C338.237 365.31 351.713 375.235 350.816 387.193L352.012 385.997C348.852 385.698 346.632 382.982 345.957 380.018C345.214 376.73 346.64 373.569 349.014 371.314C354.949 365.677 363.788 366.745 371.218 367.77C372.721 367.975 373.37 365.677 371.85 365.463C362.823 364.216 351.474 363.234 345.504 371.776C341.234 377.823 344.035 387.646 352.037 388.397C352.353 388.393 352.655 388.266 352.878 388.042C353.101 387.819 353.229 387.517 353.233 387.202C354.232 373.791 339.014 362.474 326.469 367.351C325.051 367.906 325.666 370.212 327.109 369.657L327.083 369.649Z" fill="#153A23"/>
<path d="M376.009 392.762C379.203 391.011 382.986 393.343 384.549 396.239C386.744 400.245 385.48 405.344 384.455 409.504C384.402 409.707 384.403 409.92 384.459 410.123C384.514 410.326 384.621 410.51 384.769 410.659C384.918 410.807 385.102 410.915 385.305 410.97C385.508 411.025 385.721 411.026 385.924 410.973C394.336 408.41 403.295 417.806 400.442 426.057C399.938 427.518 402.244 428.15 402.74 426.698C406.156 416.696 395.344 405.6 385.267 408.667L386.736 410.136C388.017 404.934 389.298 398.57 385.882 393.907C383.32 390.49 378.734 388.56 374.779 390.721C373.43 391.455 374.634 393.522 375.984 392.779L376.009 392.762Z" fill="#153A23"/>
<path d="M420.426 440.971C424.781 440.475 428.172 444.387 428.377 448.513C428.59 452.852 426.105 456.926 423.381 460.087C418.335 465.893 411.557 469.924 404.046 471.584C402.748 471.874 403.013 474.018 404.362 473.924C409.802 473.565 414.559 478.041 413.611 483.61C413.424 484.744 413.021 485.832 412.424 486.813C411.877 487.668 410.716 488.359 410.28 489.231C409.845 490.102 410.349 491.639 410.468 492.545L411.049 497.055C411.245 498.558 413.611 498.575 413.44 497.055L413.03 493.894C412.919 493.04 412.424 491.563 412.62 490.734C412.868 489.726 413.901 488.957 414.482 488.018C415.873 485.731 416.405 483.025 415.985 480.382C415.046 474.932 409.802 471.174 404.362 471.515L404.687 473.856C414.038 471.746 423.031 466.015 428.052 457.704C430.392 453.834 431.759 448.949 429.888 444.618C428.283 440.885 424.593 438.075 420.426 438.553C418.914 438.733 418.897 441.116 420.426 440.945V440.971Z" fill="#153A23"/>
<path d="M401.928 428.466C406.028 426.911 411.553 425.903 415.285 428.944C417.847 431.02 419.435 435.47 416.993 438.255C415.985 439.408 417.668 441.107 418.701 439.963C421.152 437.144 421.007 433.13 419.213 430.003C417.095 426.288 412.971 424.622 408.82 424.656C406.238 424.714 403.688 425.231 401.288 426.185C399.862 426.732 400.476 429.038 401.92 428.492L401.928 428.466Z" fill="#153A23"/>
<path d="M210.666 365.984C208.792 357.728 210.071 349.07 214.252 341.709C214.397 341.437 214.431 341.12 214.347 340.824C214.263 340.527 214.069 340.275 213.803 340.118C213.538 339.962 213.223 339.914 212.923 339.984C212.623 340.055 212.362 340.238 212.194 340.496C207.705 348.421 206.343 357.738 208.377 366.616C208.727 368.12 211.033 367.471 210.683 365.984H210.666Z" fill="#153A23"/>
<path d="M222.741 362.499C221.954 359.988 221.782 357.324 222.242 354.733C222.701 352.141 223.778 349.699 225.38 347.611C225.536 347.335 225.578 347.009 225.497 346.703C225.415 346.396 225.217 346.133 224.945 345.971C224.668 345.822 224.346 345.784 224.042 345.865C223.739 345.946 223.478 346.14 223.313 346.407C221.544 348.768 220.36 351.515 219.86 354.422C219.359 357.33 219.557 360.315 220.435 363.131C220.905 364.592 223.211 363.986 222.741 362.499Z" fill="#153A23"/>
<path d="M238.412 366.352C239.13 362.081 238.318 357.468 237.729 353.249C237.14 349.029 236.602 344.366 234.953 340.368C234.373 338.959 232.058 339.574 232.648 341C234.219 344.81 234.749 349.2 235.329 353.249C235.688 355.683 235.97 358.126 236.123 360.586C236.319 362.289 236.319 364.008 236.123 365.711C235.876 367.214 238.173 367.863 238.429 366.343L238.412 366.352Z" fill="#153A23"/>
<path d="M246.713 345.579C247.174 350.977 246.953 356.413 246.056 361.756C245.799 363.26 248.105 363.909 248.361 362.388C249.313 356.838 249.562 351.191 249.104 345.579C248.976 344.058 246.585 344.05 246.713 345.579Z" fill="#153A23"/>
<path d="M261.12 362.252C262.401 358.236 262.865 354.005 262.487 349.807C262.351 345.617 261.321 341.504 259.463 337.746C258.737 336.388 256.671 337.592 257.405 338.95C259.224 342.367 259.899 346.347 260.121 350.157C260.442 354.027 259.998 357.922 258.814 361.62C258.302 363.072 260.608 363.695 261.12 362.252Z" fill="#153A23"/>
<path d="M267.816 343.64C271.187 349.335 272.351 356.071 271.086 362.568C270.787 364.071 273.093 364.712 273.392 363.2C274.801 356.08 273.546 348.69 269.865 342.435C269.705 342.161 269.443 341.962 269.137 341.881C268.83 341.8 268.504 341.844 268.23 342.004C267.956 342.164 267.756 342.426 267.675 342.732C267.594 343.039 267.639 343.365 267.798 343.64H267.816Z" fill="#153A23"/>
<path d="M296.963 342.444C300.636 348.278 302.223 355.186 301.463 362.038C301.301 363.567 303.692 363.559 303.854 362.038C304.633 354.762 302.939 347.435 299.046 341.239C298.192 339.941 296.16 341.137 296.98 342.444H296.963Z" fill="#153A23"/>
<path d="M288.363 362.243C287.088 359.557 286.456 356.611 286.517 353.639C286.577 350.666 287.329 347.749 288.713 345.117C289.439 343.759 287.381 342.555 286.655 343.913C285.07 346.914 284.212 350.245 284.152 353.638C284.091 357.032 284.828 360.392 286.305 363.448C286.971 364.831 289.029 363.618 288.363 362.243Z" fill="#153A23"/>
<path d="M225.807 372.015C241.099 371.058 256.383 370.022 271.659 368.906C279.225 368.336 286.786 367.767 294.341 367.197C298.116 366.907 301.893 366.622 305.674 366.343C308.577 366.104 311.421 365.831 313.932 364.242C315.221 363.388 314.026 361.346 312.719 362.175C309.696 364.097 305.827 363.943 302.369 364.216L291.975 365.07C284.574 365.64 277.173 366.195 269.771 366.736C255.128 367.795 240.473 368.786 225.807 369.708C224.287 369.802 224.27 372.194 225.807 372.092V372.015Z" fill="#153A23"/>
<path d="M107.92 434.607C104.607 432.779 101.37 429.482 101.532 425.408C101.669 421.914 105.521 418.242 109.082 419.865C110.047 420.3 111.49 419.309 110.722 418.225C109.543 416.585 108.365 414.253 109.355 412.245C110.132 410.682 112.378 409.914 113.625 411.391C114.436 412.331 115.897 411.323 115.624 410.23C114.872 407.274 113.813 401.449 118.391 401.133C122.797 400.834 125 405.472 126.572 408.82C127.101 409.948 128.775 409.316 128.801 408.214L129.031 399.672C129.031 398.622 128.673 396.256 129.945 395.777C131.388 395.273 132.772 397.212 133.515 398.126C134.488 399.322 136.171 397.622 135.223 396.418C133.472 394.274 129.766 391.6 127.434 394.71C126.367 396.119 126.7 398.417 126.649 400.057L126.427 408.239L128.656 407.642C126.546 403.166 122.977 397.451 117.092 398.955C111.678 400.33 112.267 406.711 113.335 410.913L115.333 409.751C113.437 407.556 110.013 407.992 108.1 409.965C105.538 412.655 106.75 416.849 108.663 419.514L110.295 417.883C105.794 415.833 100.687 418.959 99.4231 423.563C97.9115 429.081 102.199 434.257 106.725 436.751C108.074 437.494 109.287 435.436 107.929 434.693L107.92 434.607Z" fill="#153A23"/>
<path d="M178.547 371.98C179.408 369.433 181.012 367.202 183.151 365.573C185.29 363.944 187.867 362.992 190.551 362.839C193.235 362.685 195.903 363.338 198.214 364.713C200.525 366.087 202.371 368.122 203.518 370.554C204.209 371.929 206.267 370.725 205.584 369.35C204.199 366.512 201.999 364.153 199.266 362.572C196.532 360.991 193.39 360.262 190.24 360.476C187.09 360.691 184.076 361.84 181.582 363.776C179.089 365.713 177.229 368.349 176.241 371.348C175.728 372.8 178.043 373.424 178.547 371.98Z" fill="#153A23"/>
<path d="M226.089 476.914C224.381 474.351 222.852 470.986 224.424 467.979C226.08 464.81 229.394 465.374 231.853 467.193C235.637 470.003 241.914 476.828 238.685 481.799L240.564 481.56C238.728 479.997 238.856 477.289 240.146 475.41C241.615 473.232 244.373 472.37 246.824 471.9C250.872 471.114 257.243 470.388 259.72 474.573C259.879 474.847 260.141 475.047 260.448 475.128C260.755 475.209 261.081 475.164 261.355 475.005C261.629 474.845 261.828 474.583 261.909 474.276C261.99 473.969 261.946 473.643 261.786 473.369C258.439 467.706 249.899 468.449 244.467 469.995C241.435 470.849 238.566 472.557 237.37 475.624C236.328 478.238 236.653 481.364 238.873 483.251C239.005 483.377 239.162 483.471 239.335 483.527C239.507 483.584 239.69 483.601 239.87 483.579C240.05 483.556 240.222 483.493 240.375 483.395C240.527 483.297 240.656 483.166 240.752 483.012C242.913 479.596 241.803 475.769 239.813 472.583C237.729 469.235 234.629 465.562 230.965 463.922C229.437 463.178 227.679 463.06 226.065 463.592C224.45 464.125 223.108 465.267 222.323 466.775C220.299 470.559 221.819 474.778 223.988 478.118C224.842 479.408 226.892 478.212 226.055 476.914H226.089Z" fill="#153A23"/>
<path d="M283.128 406.386C284.162 405.919 285.281 405.671 286.415 405.659C287.549 405.647 288.674 405.87 289.717 406.315C290.761 406.76 291.7 407.416 292.477 408.243C293.254 409.07 293.851 410.049 294.23 411.118C294.597 412.164 294.743 413.275 294.657 414.381C294.597 415.184 294.247 417.029 293.231 417.174C291.933 417.353 292.428 415.602 292.966 415.09C293.841 414.403 294.92 414.027 296.032 414.022C300.302 413.723 304.179 416.747 306.083 420.351C308.492 424.887 308.261 430.388 307.535 435.316C307.313 436.82 309.61 437.469 309.833 435.957C310.687 430.354 310.891 424.298 308.125 419.138C305.921 414.987 301.472 411.63 296.647 411.605C294.495 411.605 291.856 412.237 290.609 414.167C289.567 415.756 289.755 418.225 291.548 419.232C293.581 420.403 295.639 418.746 296.459 416.918C297.318 414.631 297.248 412.098 296.262 409.862C295.739 408.579 294.967 407.412 293.992 406.428C293.016 405.444 291.857 404.662 290.579 404.126C289.301 403.591 287.93 403.312 286.545 403.307C285.159 403.302 283.786 403.571 282.504 404.097C281.095 404.678 281.71 406.992 283.136 406.403L283.128 406.386Z" fill="#153A23"/>
<path d="M193.406 405.856C199.273 407.206 205.567 402.209 205.422 396.145C205.422 394.607 202.997 394.599 203.031 396.145C203.142 400.62 198.376 404.55 194.047 403.55C192.544 403.2 191.912 405.506 193.406 405.856Z" fill="#153A23"/>
<path d="M125.658 450.452C122.908 448.299 118.211 449.675 117.537 453.296C116.802 457.234 121.473 460.223 124.864 458.421L123.105 457.712C123.489 458.763 122.011 459.788 121.397 460.497C120.88 461.012 120.478 461.631 120.216 462.312C119.954 462.994 119.838 463.723 119.876 464.452C120.175 467.561 123.181 469.85 125.684 471.285C125.955 471.417 126.266 471.442 126.554 471.355C126.843 471.268 127.088 471.075 127.241 470.814C127.393 470.554 127.441 470.246 127.376 469.951C127.31 469.657 127.136 469.398 126.888 469.226C125.129 468.218 121.491 465.878 122.353 463.35C122.737 462.214 123.882 461.402 124.608 460.488C125.032 460.041 125.329 459.489 125.47 458.888C125.611 458.288 125.591 457.661 125.41 457.072C125.357 456.898 125.265 456.738 125.142 456.605C125.019 456.471 124.868 456.366 124.7 456.298C124.531 456.23 124.349 456.201 124.168 456.212C123.987 456.223 123.81 456.275 123.651 456.363C122.02 457.217 119.501 455.594 119.876 453.698C120.201 452.1 122.652 451.075 123.967 452.109C125.282 453.143 126.871 451.366 125.675 450.401L125.658 450.452Z" fill="#153A23"/>
<path d="M337.972 449.307C337.485 453.826 337.323 458.703 339.005 463.034C340.688 467.364 343.916 469.175 348.322 470.234C349.646 470.559 352.046 471.251 352.131 473.01C352.217 474.77 349.928 474.924 348.869 475.573C348.058 476.086 347.365 476.764 346.834 477.563C346.302 478.362 345.946 479.264 345.786 480.211C344.608 485.831 349.441 491.75 346.888 497.029C346.222 498.404 348.288 499.592 348.954 498.233C351.687 492.57 347.46 487.454 347.972 481.723C347.985 480.973 348.155 480.235 348.473 479.556C348.791 478.878 349.249 478.274 349.817 477.785C350.671 477.136 351.858 476.999 352.78 476.418C353.553 475.941 354.124 475.196 354.386 474.326C354.647 473.455 354.58 472.519 354.198 471.695C353.344 469.594 351.397 468.594 349.322 468.048C346.452 467.287 343.933 466.801 342.208 464.153C339.466 459.942 339.842 454.099 340.363 449.333C340.525 447.813 338.134 447.821 337.972 449.333V449.307Z" fill="#153A23"/>
<path d="M173.457 447.701C175.017 450.382 175.684 453.489 175.362 456.574C175.04 459.659 173.744 462.562 171.663 464.862C171.537 464.991 171.441 465.148 171.384 465.32C171.326 465.492 171.308 465.675 171.331 465.855C171.354 466.034 171.418 466.207 171.517 466.359C171.615 466.511 171.747 466.638 171.902 466.732C177.547 469.124 178.299 476.128 177.932 481.5C177.505 487.77 176.283 494.407 179.921 500.001C180.775 501.291 182.825 500.095 181.988 498.797C177.846 492.417 180.767 484.738 180.357 477.717C180.058 472.532 178.265 466.852 173.107 464.674L173.354 466.544C175.797 463.864 177.325 460.476 177.715 456.871C178.104 453.265 177.337 449.629 175.523 446.489C175.363 446.214 175.099 446.016 174.792 445.935C174.484 445.855 174.158 445.901 173.884 446.062C173.61 446.222 173.411 446.486 173.331 446.793C173.25 447.101 173.296 447.427 173.457 447.701Z" fill="#153A23"/>
<path d="M76.6383 351.934C77.8358 347.639 79.337 343.434 81.1303 339.352C81.4292 338.728 81.9843 338.002 82.6334 338.276C83.2824 338.549 83.1629 339.343 83.0177 339.984C82.1067 343.828 81.1901 347.668 80.2678 351.506C83.859 351.172 87.4776 351.723 90.8062 353.112C90.897 353.155 90.9748 353.221 91.0315 353.304C91.0882 353.387 91.1217 353.483 91.1287 353.583C91.1357 353.683 91.1158 353.784 91.0711 353.873C91.0264 353.963 90.9585 354.04 90.8745 354.095C88.8752 355.376 86.5252 356 84.1535 355.88C83.2995 355.88 82.3345 355.735 81.7196 356.315C81.357 356.739 81.123 357.258 81.0449 357.81C80.2571 361.121 79.0398 364.314 77.424 367.308C77.3583 367.422 77.2599 367.512 77.1417 367.569C77.0235 367.625 76.8911 367.644 76.7618 367.624C76.6325 367.603 76.5124 367.545 76.4172 367.455C76.322 367.365 76.2562 367.248 76.2284 367.12C75.5537 364.139 76.8945 360.783 76.8176 357.597C76.8408 357.239 76.7512 356.884 76.5614 356.58C76.2495 356.255 75.8314 356.052 75.3829 356.008C72.0089 355.256 68.6971 354.248 65.4764 352.993C64.6224 352.66 63.5806 351.694 64.2211 351.011C64.4361 350.822 64.7049 350.706 64.9897 350.678C66.9876 350.272 69.0466 350.272 71.0446 350.678L76.6383 351.934Z" fill="white"/>
<path d="M48.7209 381.496C45.4757 384.571 46.2699 391.079 51.838 389.516C60.0706 387.21 54.289 376.226 48.7209 381.496Z" fill="white"/>
<path d="M57.4744 244.028C53.0165 248.239 54.1182 257.165 61.7445 255.021C73.0173 251.86 65.1007 236.81 57.4744 244.028Z" fill="white"/>
<path d="M167.222 90.8262C166.99 86.3812 167.079 81.9252 167.487 77.4928C167.564 76.8181 167.88 75.9383 168.563 75.9981C169.246 76.0579 169.417 76.8522 169.468 77.4672C169.839 81.3963 170.197 85.3312 170.545 89.2717C173.841 87.8003 177.448 87.1637 181.049 87.4182C181.149 87.4278 181.245 87.4645 181.326 87.5243C181.407 87.5842 181.47 87.6649 181.509 87.758C181.547 87.851 181.56 87.9528 181.545 88.0524C181.53 88.152 181.489 88.2458 181.425 88.3236C179.94 90.175 177.917 91.5184 175.634 92.1673C174.78 92.3979 173.858 92.6029 173.457 93.3631C173.251 93.8811 173.198 94.4472 173.303 94.9945C173.621 98.4139 173.486 101.86 172.902 105.244C172.876 105.374 172.812 105.492 172.718 105.584C172.624 105.676 172.504 105.737 172.374 105.759C172.245 105.781 172.111 105.763 171.992 105.708C171.873 105.653 171.773 105.563 171.706 105.449C170.118 102.836 170.314 99.2311 169.229 96.2416C169.123 95.9084 168.925 95.6122 168.657 95.3874C168.252 95.1873 167.792 95.1301 167.351 95.2251C163.913 95.5909 160.453 95.6965 157 95.5412C156.069 95.5412 154.797 94.9091 155.181 94.072C155.325 93.8215 155.543 93.6217 155.804 93.4998C157.575 92.49 159.529 91.8425 161.552 91.595L167.222 90.8262Z" fill="white"/>
<path d="M153.089 117.672C150.621 120.004 151.227 124.95 155.463 123.763C161.714 122.012 157.325 113.666 153.089 117.672Z" fill="white"/>
<path d="M343.147 77.1256C338.501 81.5245 339.646 90.7921 347.605 88.6055C359.373 85.2999 351.115 69.592 343.147 77.1256Z" fill="white"/>
<path d="M363.609 97.1641C361.141 99.4959 361.756 104.441 365.983 103.254C372.235 101.503 367.845 93.1239 363.609 97.1641Z" fill="white"/>
<path d="M102.19 260.351C99.722 262.683 100.328 267.628 104.556 266.441C110.807 264.69 106.417 256.345 102.19 260.351Z" fill="white"/>
<path d="M430.529 262.794C430.533 259.364 430.781 255.938 431.272 252.544C431.357 252.023 431.639 251.356 432.126 251.433C432.613 251.51 432.741 252.117 432.766 252.595C432.886 255.644 433.005 258.685 433.116 261.734C435.714 260.732 438.518 260.389 441.281 260.735C441.357 260.746 441.43 260.778 441.49 260.827C441.55 260.876 441.595 260.94 441.622 261.013C441.648 261.086 441.654 261.164 441.639 261.24C441.624 261.316 441.589 261.387 441.537 261.444C440.321 262.811 438.709 263.764 436.925 264.169C436.285 264.314 435.542 264.442 435.217 265.023C435.037 265.412 434.975 265.846 435.038 266.27C435.139 268.91 434.895 271.552 434.312 274.128C434.288 274.227 434.235 274.316 434.16 274.383C434.084 274.45 433.99 274.493 433.89 274.505C433.789 274.517 433.687 274.498 433.598 274.451C433.509 274.403 433.436 274.329 433.39 274.239C432.262 272.164 432.536 269.388 431.844 267.039C431.78 266.772 431.64 266.529 431.443 266.338C431.14 266.167 430.787 266.103 430.443 266.159C427.778 266.303 425.106 266.246 422.45 265.988C421.741 265.92 420.742 265.416 421.109 264.775C421.234 264.593 421.409 264.45 421.613 264.365C423.024 263.641 424.566 263.211 426.148 263.101L430.529 262.794Z" fill="white"/>
<path d="M455.415 235.367C452.169 238.442 452.964 244.95 458.532 243.387C466.756 241.081 460.983 230.105 455.415 235.367Z" fill="white"/>
<path d="M236.328 31.8382C233.083 34.9132 233.877 41.4218 239.446 39.8587C247.661 37.5525 241.896 26.5766 236.328 31.8382Z" fill="white"/>
<path d="M427.258 375.927C422.023 380.881 423.313 391.361 432.28 388.85C445.534 385.126 436.225 367.445 427.258 375.927Z" fill="white"/>
</svg>
